<mxfile host="app.diagrams.net" agent="Mozilla/5.0 (Windows NT 10.0; Win64; x64) AppleWebKit/537.36 (KHTML, like Gecko) Chrome/131.0.0.0 Safari/537.36" version="24.8.8">
  <diagram name="Page-1" id="5x3QlWRq-N3S-oAhGKyv">
    <mxGraphModel dx="1893" dy="1513" grid="1" gridSize="10" guides="1" tooltips="1" connect="1" arrows="1" fold="1" page="1" pageScale="1" pageWidth="850" pageHeight="1100" math="0" shadow="0">
      <root>
        <mxCell id="0" />
        <mxCell id="1" parent="0" />
        <mxCell id="BXiqwRlGKzKQuI-ZINDh-2" value="" style="shape=mxgraph.cisco.computers_and_peripherals.pc;sketch=0;html=1;pointerEvents=1;dashed=0;fillColor=#036897;strokeColor=#ffffff;strokeWidth=2;verticalLabelPosition=bottom;verticalAlign=top;align=center;outlineConnect=0;" parent="1" vertex="1">
          <mxGeometry x="120" y="405" width="78" height="70" as="geometry" />
        </mxCell>
        <mxCell id="BXiqwRlGKzKQuI-ZINDh-9" value="" style="shape=mxgraph.cisco.computers_and_peripherals.pc;sketch=0;html=1;pointerEvents=1;dashed=0;fillColor=#036897;strokeColor=#ffffff;strokeWidth=2;verticalLabelPosition=bottom;verticalAlign=top;align=center;outlineConnect=0;" parent="1" vertex="1">
          <mxGeometry x="-9" y="410" width="78" height="70" as="geometry" />
        </mxCell>
        <mxCell id="BXiqwRlGKzKQuI-ZINDh-10" value="" style="shape=mxgraph.cisco.computers_and_peripherals.pc;sketch=0;html=1;pointerEvents=1;dashed=0;fillColor=#036897;strokeColor=#ffffff;strokeWidth=2;verticalLabelPosition=bottom;verticalAlign=top;align=center;outlineConnect=0;" parent="1" vertex="1">
          <mxGeometry x="-270" y="410" width="78" height="70" as="geometry" />
        </mxCell>
        <mxCell id="BXiqwRlGKzKQuI-ZINDh-11" value="" style="shape=mxgraph.cisco.computers_and_peripherals.pc;sketch=0;html=1;pointerEvents=1;dashed=0;fillColor=#036897;strokeColor=#ffffff;strokeWidth=2;verticalLabelPosition=bottom;verticalAlign=top;align=center;outlineConnect=0;" parent="1" vertex="1">
          <mxGeometry x="-410" y="410" width="78" height="70" as="geometry" />
        </mxCell>
        <mxCell id="BXiqwRlGKzKQuI-ZINDh-12" value="" style="shape=mxgraph.cisco.computers_and_peripherals.pc;sketch=0;html=1;pointerEvents=1;dashed=0;fillColor=#036897;strokeColor=#ffffff;strokeWidth=2;verticalLabelPosition=bottom;verticalAlign=top;align=center;outlineConnect=0;" parent="1" vertex="1">
          <mxGeometry x="-550" y="410" width="78" height="70" as="geometry" />
        </mxCell>
        <mxCell id="g66wI6sif0jjf1UmDSFJ-20" style="edgeStyle=orthogonalEdgeStyle;rounded=0;orthogonalLoop=1;jettySize=auto;html=1;" parent="1" source="BXiqwRlGKzKQuI-ZINDh-14" target="BXiqwRlGKzKQuI-ZINDh-29" edge="1">
          <mxGeometry relative="1" as="geometry">
            <Array as="points">
              <mxPoint x="-530" y="130" />
            </Array>
          </mxGeometry>
        </mxCell>
        <mxCell id="BXiqwRlGKzKQuI-ZINDh-14" value="" style="shape=mxgraph.cisco.switches.workgroup_switch;sketch=0;html=1;pointerEvents=1;dashed=0;fillColor=#036897;strokeColor=#ffffff;strokeWidth=2;verticalLabelPosition=bottom;verticalAlign=top;align=center;outlineConnect=0;" parent="1" vertex="1">
          <mxGeometry x="-561" y="310" width="101" height="50" as="geometry" />
        </mxCell>
        <mxCell id="g66wI6sif0jjf1UmDSFJ-31" style="edgeStyle=orthogonalEdgeStyle;rounded=0;orthogonalLoop=1;jettySize=auto;html=1;" parent="1" source="BXiqwRlGKzKQuI-ZINDh-15" target="BXiqwRlGKzKQuI-ZINDh-29" edge="1">
          <mxGeometry relative="1" as="geometry">
            <Array as="points">
              <mxPoint x="-390" y="160" />
              <mxPoint x="-260" y="160" />
            </Array>
          </mxGeometry>
        </mxCell>
        <mxCell id="BXiqwRlGKzKQuI-ZINDh-15" value="" style="shape=mxgraph.cisco.switches.workgroup_switch;sketch=0;html=1;pointerEvents=1;dashed=0;fillColor=#036897;strokeColor=#ffffff;strokeWidth=2;verticalLabelPosition=bottom;verticalAlign=top;align=center;outlineConnect=0;" parent="1" vertex="1">
          <mxGeometry x="-421" y="310" width="101" height="50" as="geometry" />
        </mxCell>
        <mxCell id="g66wI6sif0jjf1UmDSFJ-22" style="edgeStyle=orthogonalEdgeStyle;rounded=0;orthogonalLoop=1;jettySize=auto;html=1;" parent="1" source="BXiqwRlGKzKQuI-ZINDh-16" target="BXiqwRlGKzKQuI-ZINDh-29" edge="1">
          <mxGeometry relative="1" as="geometry" />
        </mxCell>
        <mxCell id="BXiqwRlGKzKQuI-ZINDh-16" value="" style="shape=mxgraph.cisco.switches.workgroup_switch;sketch=0;html=1;pointerEvents=1;dashed=0;fillColor=#036897;strokeColor=#ffffff;strokeWidth=2;verticalLabelPosition=bottom;verticalAlign=top;align=center;outlineConnect=0;" parent="1" vertex="1">
          <mxGeometry x="-281" y="300" width="101" height="50" as="geometry" />
        </mxCell>
        <mxCell id="g66wI6sif0jjf1UmDSFJ-25" style="edgeStyle=orthogonalEdgeStyle;rounded=0;orthogonalLoop=1;jettySize=auto;html=1;" parent="1" source="BXiqwRlGKzKQuI-ZINDh-17" target="BXiqwRlGKzKQuI-ZINDh-29" edge="1">
          <mxGeometry relative="1" as="geometry">
            <Array as="points">
              <mxPoint x="160" y="100" />
            </Array>
          </mxGeometry>
        </mxCell>
        <mxCell id="BXiqwRlGKzKQuI-ZINDh-17" value="" style="shape=mxgraph.cisco.switches.workgroup_switch;sketch=0;html=1;pointerEvents=1;dashed=0;fillColor=#036897;strokeColor=#ffffff;strokeWidth=2;verticalLabelPosition=bottom;verticalAlign=top;align=center;outlineConnect=0;" parent="1" vertex="1">
          <mxGeometry x="108.5" y="295" width="101" height="50" as="geometry" />
        </mxCell>
        <mxCell id="BXiqwRlGKzKQuI-ZINDh-18" value="Business Consultants&lt;div&gt;Floor 4&amp;nbsp;&lt;/div&gt;&lt;div&gt;(34)&lt;/div&gt;" style="text;html=1;align=center;verticalAlign=middle;whiteSpace=wrap;rounded=0;" parent="1" vertex="1">
          <mxGeometry x="-570" y="490" width="118" height="40" as="geometry" />
        </mxCell>
        <mxCell id="BXiqwRlGKzKQuI-ZINDh-19" value="Client Management (31)" style="text;html=1;align=center;verticalAlign=middle;whiteSpace=wrap;rounded=0;" parent="1" vertex="1">
          <mxGeometry x="-421" y="500" width="91" height="40" as="geometry" />
        </mxCell>
        <mxCell id="BXiqwRlGKzKQuI-ZINDh-20" value="Sales&amp;amp;Marketing&lt;div&gt;Floor 1&lt;/div&gt;&lt;div&gt;&amp;nbsp;(16)&lt;/div&gt;" style="text;html=1;align=center;verticalAlign=middle;whiteSpace=wrap;rounded=0;" parent="1" vertex="1">
          <mxGeometry x="-281" y="500" width="91" height="50" as="geometry" />
        </mxCell>
        <mxCell id="BXiqwRlGKzKQuI-ZINDh-21" value="Communications (22)" style="text;html=1;align=center;verticalAlign=middle;whiteSpace=wrap;rounded=0;" parent="1" vertex="1">
          <mxGeometry x="-15.5" y="500" width="91" height="40" as="geometry" />
        </mxCell>
        <mxCell id="BXiqwRlGKzKQuI-ZINDh-22" value="Security (16)" style="text;html=1;align=center;verticalAlign=middle;whiteSpace=wrap;rounded=0;" parent="1" vertex="1">
          <mxGeometry x="113.5" y="495" width="91" height="40" as="geometry" />
        </mxCell>
        <mxCell id="BXiqwRlGKzKQuI-ZINDh-23" value="" style="shape=mxgraph.cisco.switches.workgroup_switch;sketch=0;html=1;pointerEvents=1;dashed=0;fillColor=#036897;strokeColor=#ffffff;strokeWidth=2;verticalLabelPosition=bottom;verticalAlign=top;align=center;outlineConnect=0;" parent="1" vertex="1">
          <mxGeometry x="-20.5" y="300" width="101" height="50" as="geometry" />
        </mxCell>
        <mxCell id="BXiqwRlGKzKQuI-ZINDh-24" value="" style="endArrow=none;html=1;rounded=0;exitX=0.5;exitY=0;exitDx=0;exitDy=0;exitPerimeter=0;entryX=0.5;entryY=0.98;entryDx=0;entryDy=0;entryPerimeter=0;" parent="1" source="BXiqwRlGKzKQuI-ZINDh-12" target="BXiqwRlGKzKQuI-ZINDh-14" edge="1">
          <mxGeometry width="50" height="50" relative="1" as="geometry">
            <mxPoint x="-380" y="380" as="sourcePoint" />
            <mxPoint x="-330" y="330" as="targetPoint" />
          </mxGeometry>
        </mxCell>
        <mxCell id="BXiqwRlGKzKQuI-ZINDh-25" value="" style="endArrow=none;html=1;rounded=0;" parent="1" source="BXiqwRlGKzKQuI-ZINDh-11" target="BXiqwRlGKzKQuI-ZINDh-15" edge="1">
          <mxGeometry width="50" height="50" relative="1" as="geometry">
            <mxPoint x="-420" y="410" as="sourcePoint" />
            <mxPoint x="-370" y="360" as="targetPoint" />
          </mxGeometry>
        </mxCell>
        <mxCell id="BXiqwRlGKzKQuI-ZINDh-26" value="" style="endArrow=none;html=1;rounded=0;entryX=0.5;entryY=0.98;entryDx=0;entryDy=0;entryPerimeter=0;" parent="1" source="BXiqwRlGKzKQuI-ZINDh-10" target="BXiqwRlGKzKQuI-ZINDh-16" edge="1">
          <mxGeometry width="50" height="50" relative="1" as="geometry">
            <mxPoint x="-270" y="400" as="sourcePoint" />
            <mxPoint x="-220" y="350" as="targetPoint" />
          </mxGeometry>
        </mxCell>
        <mxCell id="BXiqwRlGKzKQuI-ZINDh-27" value="" style="endArrow=none;html=1;rounded=0;" parent="1" source="BXiqwRlGKzKQuI-ZINDh-9" target="BXiqwRlGKzKQuI-ZINDh-23" edge="1">
          <mxGeometry width="50" height="50" relative="1" as="geometry">
            <mxPoint x="90" y="380" as="sourcePoint" />
            <mxPoint x="90" y="350" as="targetPoint" />
          </mxGeometry>
        </mxCell>
        <mxCell id="BXiqwRlGKzKQuI-ZINDh-28" value="" style="endArrow=none;html=1;rounded=0;" parent="1" source="BXiqwRlGKzKQuI-ZINDh-2" target="BXiqwRlGKzKQuI-ZINDh-17" edge="1">
          <mxGeometry width="50" height="50" relative="1" as="geometry">
            <mxPoint x="110" y="405" as="sourcePoint" />
            <mxPoint x="160" y="355" as="targetPoint" />
          </mxGeometry>
        </mxCell>
        <mxCell id="BXiqwRlGKzKQuI-ZINDh-29" value="" style="shape=mxgraph.cisco.switches.workgroup_switch;sketch=0;html=1;pointerEvents=1;dashed=0;fillColor=#036897;strokeColor=#ffffff;strokeWidth=2;verticalLabelPosition=bottom;verticalAlign=top;align=center;outlineConnect=0;" parent="1" vertex="1">
          <mxGeometry x="-281.5" y="90" width="101" height="50" as="geometry" />
        </mxCell>
        <mxCell id="BXiqwRlGKzKQuI-ZINDh-36" value="5718" style="text;html=1;align=center;verticalAlign=middle;whiteSpace=wrap;rounded=0;" parent="1" vertex="1">
          <mxGeometry x="-607.5" y="430" width="60" height="30" as="geometry" />
        </mxCell>
        <mxCell id="BXiqwRlGKzKQuI-ZINDh-37" value="2716" style="text;html=1;align=center;verticalAlign=middle;whiteSpace=wrap;rounded=0;" parent="1" vertex="1">
          <mxGeometry x="-400.5" y="260" width="60" height="30" as="geometry" />
        </mxCell>
        <mxCell id="BXiqwRlGKzKQuI-ZINDh-38" value="1901" style="text;html=1;align=center;verticalAlign=middle;whiteSpace=wrap;rounded=0;" parent="1" vertex="1">
          <mxGeometry x="-200.5" y="430" width="60" height="30" as="geometry" />
        </mxCell>
        <mxCell id="BXiqwRlGKzKQuI-ZINDh-39" value="1611" style="text;html=1;align=center;verticalAlign=middle;whiteSpace=wrap;rounded=0;" parent="1" vertex="1">
          <mxGeometry x="30" y="260" width="60" height="30" as="geometry" />
        </mxCell>
        <mxCell id="BXiqwRlGKzKQuI-ZINDh-40" value="1215" style="text;html=1;align=center;verticalAlign=middle;whiteSpace=wrap;rounded=0;" parent="1" vertex="1">
          <mxGeometry x="160" y="255" width="60" height="30" as="geometry" />
        </mxCell>
        <mxCell id="BXiqwRlGKzKQuI-ZINDh-69" value="" style="shape=mxgraph.cisco.computers_and_peripherals.pc;sketch=0;html=1;pointerEvents=1;dashed=0;fillColor=#036897;strokeColor=#ffffff;strokeWidth=2;verticalLabelPosition=bottom;verticalAlign=top;align=center;outlineConnect=0;" parent="1" vertex="1">
          <mxGeometry x="996.5" y="425" width="78" height="70" as="geometry" />
        </mxCell>
        <mxCell id="BXiqwRlGKzKQuI-ZINDh-70" value="" style="shape=mxgraph.cisco.computers_and_peripherals.pc;sketch=0;html=1;pointerEvents=1;dashed=0;fillColor=#036897;strokeColor=#ffffff;strokeWidth=2;verticalLabelPosition=bottom;verticalAlign=top;align=center;outlineConnect=0;" parent="1" vertex="1">
          <mxGeometry x="866.5" y="445" width="78" height="70" as="geometry" />
        </mxCell>
        <mxCell id="BXiqwRlGKzKQuI-ZINDh-71" value="" style="shape=mxgraph.cisco.computers_and_peripherals.pc;sketch=0;html=1;pointerEvents=1;dashed=0;fillColor=#036897;strokeColor=#ffffff;strokeWidth=2;verticalLabelPosition=bottom;verticalAlign=top;align=center;outlineConnect=0;" parent="1" vertex="1">
          <mxGeometry x="746.5" y="445" width="78" height="70" as="geometry" />
        </mxCell>
        <mxCell id="BXiqwRlGKzKQuI-ZINDh-72" value="" style="shape=mxgraph.cisco.computers_and_peripherals.pc;sketch=0;html=1;pointerEvents=1;dashed=0;fillColor=#036897;strokeColor=#ffffff;strokeWidth=2;verticalLabelPosition=bottom;verticalAlign=top;align=center;outlineConnect=0;" parent="1" vertex="1">
          <mxGeometry x="616.5" y="445" width="78" height="70" as="geometry" />
        </mxCell>
        <mxCell id="BXiqwRlGKzKQuI-ZINDh-73" value="" style="shape=mxgraph.cisco.computers_and_peripherals.pc;sketch=0;html=1;pointerEvents=1;dashed=0;fillColor=#036897;strokeColor=#ffffff;strokeWidth=2;verticalLabelPosition=bottom;verticalAlign=top;align=center;outlineConnect=0;" parent="1" vertex="1">
          <mxGeometry x="493.5" y="445" width="78" height="70" as="geometry" />
        </mxCell>
        <mxCell id="g66wI6sif0jjf1UmDSFJ-40" style="edgeStyle=orthogonalEdgeStyle;rounded=0;orthogonalLoop=1;jettySize=auto;html=1;" parent="1" source="BXiqwRlGKzKQuI-ZINDh-75" target="BXiqwRlGKzKQuI-ZINDh-93" edge="1">
          <mxGeometry relative="1" as="geometry">
            <Array as="points">
              <mxPoint x="510" y="140" />
            </Array>
          </mxGeometry>
        </mxCell>
        <mxCell id="BXiqwRlGKzKQuI-ZINDh-75" value="" style="shape=mxgraph.cisco.switches.workgroup_switch;sketch=0;html=1;pointerEvents=1;dashed=0;fillColor=#036897;strokeColor=#ffffff;strokeWidth=2;verticalLabelPosition=bottom;verticalAlign=top;align=center;outlineConnect=0;" parent="1" vertex="1">
          <mxGeometry x="482" y="300" width="101" height="50" as="geometry" />
        </mxCell>
        <mxCell id="g66wI6sif0jjf1UmDSFJ-41" style="edgeStyle=orthogonalEdgeStyle;rounded=0;orthogonalLoop=1;jettySize=auto;html=1;" parent="1" source="BXiqwRlGKzKQuI-ZINDh-77" target="BXiqwRlGKzKQuI-ZINDh-93" edge="1">
          <mxGeometry relative="1" as="geometry">
            <Array as="points">
              <mxPoint x="640" y="170" />
              <mxPoint x="780" y="170" />
            </Array>
          </mxGeometry>
        </mxCell>
        <mxCell id="BXiqwRlGKzKQuI-ZINDh-77" value="" style="shape=mxgraph.cisco.switches.workgroup_switch;sketch=0;html=1;pointerEvents=1;dashed=0;fillColor=#036897;strokeColor=#ffffff;strokeWidth=2;verticalLabelPosition=bottom;verticalAlign=top;align=center;outlineConnect=0;" parent="1" vertex="1">
          <mxGeometry x="605" y="300" width="101" height="50" as="geometry" />
        </mxCell>
        <mxCell id="g66wI6sif0jjf1UmDSFJ-42" style="edgeStyle=orthogonalEdgeStyle;rounded=0;orthogonalLoop=1;jettySize=auto;html=1;" parent="1" source="BXiqwRlGKzKQuI-ZINDh-79" target="BXiqwRlGKzKQuI-ZINDh-93" edge="1">
          <mxGeometry relative="1" as="geometry">
            <Array as="points">
              <mxPoint x="800" y="260" />
              <mxPoint x="800" y="260" />
            </Array>
          </mxGeometry>
        </mxCell>
        <mxCell id="BXiqwRlGKzKQuI-ZINDh-79" value="" style="shape=mxgraph.cisco.switches.workgroup_switch;sketch=0;html=1;pointerEvents=1;dashed=0;fillColor=#036897;strokeColor=#ffffff;strokeWidth=2;verticalLabelPosition=bottom;verticalAlign=top;align=center;outlineConnect=0;" parent="1" vertex="1">
          <mxGeometry x="735" y="300" width="101" height="50" as="geometry" />
        </mxCell>
        <mxCell id="g66wI6sif0jjf1UmDSFJ-48" style="edgeStyle=orthogonalEdgeStyle;rounded=0;orthogonalLoop=1;jettySize=auto;html=1;" parent="1" source="BXiqwRlGKzKQuI-ZINDh-80" target="BXiqwRlGKzKQuI-ZINDh-93" edge="1">
          <mxGeometry relative="1" as="geometry">
            <Array as="points">
              <mxPoint x="1036" y="200" />
              <mxPoint x="860" y="200" />
            </Array>
          </mxGeometry>
        </mxCell>
        <mxCell id="BXiqwRlGKzKQuI-ZINDh-80" value="" style="shape=mxgraph.cisco.switches.workgroup_switch;sketch=0;html=1;pointerEvents=1;dashed=0;fillColor=#036897;strokeColor=#ffffff;strokeWidth=2;verticalLabelPosition=bottom;verticalAlign=top;align=center;outlineConnect=0;" parent="1" vertex="1">
          <mxGeometry x="985" y="295" width="101" height="50" as="geometry" />
        </mxCell>
        <mxCell id="BXiqwRlGKzKQuI-ZINDh-81" value="IT&lt;div&gt;Floor 3&lt;br&gt;&lt;div&gt;(10)&lt;/div&gt;&lt;/div&gt;" style="text;html=1;align=center;verticalAlign=middle;whiteSpace=wrap;rounded=0;" parent="1" vertex="1">
          <mxGeometry x="487" y="525" width="91" height="40" as="geometry" />
        </mxCell>
        <mxCell id="BXiqwRlGKzKQuI-ZINDh-82" value="Legal&amp;nbsp;&lt;div&gt;(25)&lt;/div&gt;" style="text;html=1;align=center;verticalAlign=middle;whiteSpace=wrap;rounded=0;" parent="1" vertex="1">
          <mxGeometry x="610" y="525" width="91" height="40" as="geometry" />
        </mxCell>
        <mxCell id="BXiqwRlGKzKQuI-ZINDh-83" value="Finance&lt;div&gt;(28)&lt;/div&gt;" style="text;html=1;align=center;verticalAlign=middle;whiteSpace=wrap;rounded=0;" parent="1" vertex="1">
          <mxGeometry x="740" y="525" width="91" height="40" as="geometry" />
        </mxCell>
        <mxCell id="BXiqwRlGKzKQuI-ZINDh-84" value="HR&lt;div&gt;(25)&lt;/div&gt;" style="text;html=1;align=center;verticalAlign=middle;whiteSpace=wrap;rounded=0;" parent="1" vertex="1">
          <mxGeometry x="856.5" y="525" width="91" height="40" as="geometry" />
        </mxCell>
        <mxCell id="BXiqwRlGKzKQuI-ZINDh-85" value="Research&amp;amp;Analysis&lt;div&gt;Floor 4&lt;/div&gt;&lt;div&gt;(4)&lt;/div&gt;" style="text;html=1;align=center;verticalAlign=middle;whiteSpace=wrap;rounded=0;" parent="1" vertex="1">
          <mxGeometry x="990" y="525" width="91" height="40" as="geometry" />
        </mxCell>
        <mxCell id="g66wI6sif0jjf1UmDSFJ-43" style="edgeStyle=orthogonalEdgeStyle;rounded=0;orthogonalLoop=1;jettySize=auto;html=1;" parent="1" source="BXiqwRlGKzKQuI-ZINDh-87" target="BXiqwRlGKzKQuI-ZINDh-93" edge="1">
          <mxGeometry relative="1" as="geometry" />
        </mxCell>
        <mxCell id="BXiqwRlGKzKQuI-ZINDh-87" value="" style="shape=mxgraph.cisco.switches.workgroup_switch;sketch=0;html=1;pointerEvents=1;dashed=0;fillColor=#036897;strokeColor=#ffffff;strokeWidth=2;verticalLabelPosition=bottom;verticalAlign=top;align=center;outlineConnect=0;" parent="1" vertex="1">
          <mxGeometry x="855" y="300" width="101" height="50" as="geometry" />
        </mxCell>
        <mxCell id="BXiqwRlGKzKQuI-ZINDh-88" value="" style="endArrow=none;html=1;rounded=0;exitX=0.5;exitY=0;exitDx=0;exitDy=0;exitPerimeter=0;entryX=0.5;entryY=0.98;entryDx=0;entryDy=0;entryPerimeter=0;" parent="1" source="BXiqwRlGKzKQuI-ZINDh-73" target="BXiqwRlGKzKQuI-ZINDh-75" edge="1">
          <mxGeometry width="50" height="50" relative="1" as="geometry">
            <mxPoint x="675" y="415" as="sourcePoint" />
            <mxPoint x="725" y="365" as="targetPoint" />
          </mxGeometry>
        </mxCell>
        <mxCell id="BXiqwRlGKzKQuI-ZINDh-89" value="" style="endArrow=none;html=1;rounded=0;" parent="1" source="BXiqwRlGKzKQuI-ZINDh-72" target="BXiqwRlGKzKQuI-ZINDh-77" edge="1">
          <mxGeometry width="50" height="50" relative="1" as="geometry">
            <mxPoint x="635" y="445" as="sourcePoint" />
            <mxPoint x="685" y="395" as="targetPoint" />
          </mxGeometry>
        </mxCell>
        <mxCell id="BXiqwRlGKzKQuI-ZINDh-90" value="" style="endArrow=none;html=1;rounded=0;entryX=0.5;entryY=0.98;entryDx=0;entryDy=0;entryPerimeter=0;" parent="1" source="BXiqwRlGKzKQuI-ZINDh-71" target="BXiqwRlGKzKQuI-ZINDh-79" edge="1">
          <mxGeometry width="50" height="50" relative="1" as="geometry">
            <mxPoint x="785" y="435" as="sourcePoint" />
            <mxPoint x="835" y="385" as="targetPoint" />
          </mxGeometry>
        </mxCell>
        <mxCell id="BXiqwRlGKzKQuI-ZINDh-91" value="" style="endArrow=none;html=1;rounded=0;" parent="1" source="BXiqwRlGKzKQuI-ZINDh-70" target="BXiqwRlGKzKQuI-ZINDh-87" edge="1">
          <mxGeometry width="50" height="50" relative="1" as="geometry">
            <mxPoint x="928" y="415" as="sourcePoint" />
            <mxPoint x="928" y="385" as="targetPoint" />
          </mxGeometry>
        </mxCell>
        <mxCell id="BXiqwRlGKzKQuI-ZINDh-92" value="" style="endArrow=none;html=1;rounded=0;" parent="1" source="BXiqwRlGKzKQuI-ZINDh-69" target="BXiqwRlGKzKQuI-ZINDh-80" edge="1">
          <mxGeometry width="50" height="50" relative="1" as="geometry">
            <mxPoint x="1012.02" y="425" as="sourcePoint" />
            <mxPoint x="1062.02" y="375" as="targetPoint" />
          </mxGeometry>
        </mxCell>
        <mxCell id="g66wI6sif0jjf1UmDSFJ-50" style="edgeStyle=orthogonalEdgeStyle;rounded=0;orthogonalLoop=1;jettySize=auto;html=1;" parent="1" source="BXiqwRlGKzKQuI-ZINDh-93" target="BXiqwRlGKzKQuI-ZINDh-128" edge="1">
          <mxGeometry relative="1" as="geometry">
            <Array as="points">
              <mxPoint x="825" y="40" />
              <mxPoint x="260" y="40" />
            </Array>
          </mxGeometry>
        </mxCell>
        <mxCell id="BXiqwRlGKzKQuI-ZINDh-93" value="" style="shape=mxgraph.cisco.switches.workgroup_switch;sketch=0;html=1;pointerEvents=1;dashed=0;fillColor=#036897;strokeColor=#ffffff;strokeWidth=2;verticalLabelPosition=bottom;verticalAlign=top;align=center;outlineConnect=0;" parent="1" vertex="1">
          <mxGeometry x="774" y="100" width="101" height="50" as="geometry" />
        </mxCell>
        <mxCell id="BXiqwRlGKzKQuI-ZINDh-95" value="&lt;font style=&quot;font-size: 14px;&quot;&gt;3208&lt;/font&gt;" style="text;html=1;align=center;verticalAlign=middle;whiteSpace=wrap;rounded=0;" parent="1" vertex="1">
          <mxGeometry x="440.5" y="465" width="60" height="30" as="geometry" />
        </mxCell>
        <mxCell id="BXiqwRlGKzKQuI-ZINDh-96" value="&lt;font style=&quot;font-size: 14px;&quot;&gt;2351&lt;/font&gt;" style="text;html=1;align=center;verticalAlign=middle;whiteSpace=wrap;rounded=0;" parent="1" vertex="1">
          <mxGeometry x="634.5" y="255" width="60" height="30" as="geometry" />
        </mxCell>
        <mxCell id="BXiqwRlGKzKQuI-ZINDh-97" value="2042" style="text;html=1;align=center;verticalAlign=middle;whiteSpace=wrap;rounded=0;" parent="1" vertex="1">
          <mxGeometry x="790" y="260" width="60" height="30" as="geometry" />
        </mxCell>
        <mxCell id="BXiqwRlGKzKQuI-ZINDh-98" value="1901" style="text;html=1;align=center;verticalAlign=middle;whiteSpace=wrap;rounded=0;" parent="1" vertex="1">
          <mxGeometry x="896" y="245" width="60" height="30" as="geometry" />
        </mxCell>
        <mxCell id="BXiqwRlGKzKQuI-ZINDh-99" value="1743" style="text;html=1;align=center;verticalAlign=middle;whiteSpace=wrap;rounded=0;" parent="1" vertex="1">
          <mxGeometry x="1074.5" y="410" width="60" height="30" as="geometry" />
        </mxCell>
        <mxCell id="BXiqwRlGKzKQuI-ZINDh-101" value="" style="shape=mxgraph.cisco.computers_and_peripherals.pc;sketch=0;html=1;pointerEvents=1;dashed=0;fillColor=#036897;strokeColor=#ffffff;strokeWidth=2;verticalLabelPosition=bottom;verticalAlign=top;align=center;outlineConnect=0;" parent="1" vertex="1">
          <mxGeometry x="1366.5" y="425" width="78" height="70" as="geometry" />
        </mxCell>
        <mxCell id="BXiqwRlGKzKQuI-ZINDh-102" value="" style="shape=mxgraph.cisco.computers_and_peripherals.pc;sketch=0;html=1;pointerEvents=1;dashed=0;fillColor=#036897;strokeColor=#ffffff;strokeWidth=2;verticalLabelPosition=bottom;verticalAlign=top;align=center;outlineConnect=0;" parent="1" vertex="1">
          <mxGeometry x="1241.5" y="425" width="78" height="70" as="geometry" />
        </mxCell>
        <mxCell id="g66wI6sif0jjf1UmDSFJ-49" style="edgeStyle=orthogonalEdgeStyle;rounded=0;orthogonalLoop=1;jettySize=auto;html=1;" parent="1" source="BXiqwRlGKzKQuI-ZINDh-103" target="BXiqwRlGKzKQuI-ZINDh-93" edge="1">
          <mxGeometry relative="1" as="geometry">
            <Array as="points">
              <mxPoint x="1406" y="110" />
            </Array>
          </mxGeometry>
        </mxCell>
        <mxCell id="BXiqwRlGKzKQuI-ZINDh-103" value="" style="shape=mxgraph.cisco.switches.workgroup_switch;sketch=0;html=1;pointerEvents=1;dashed=0;fillColor=#036897;strokeColor=#ffffff;strokeWidth=2;verticalLabelPosition=bottom;verticalAlign=top;align=center;outlineConnect=0;" parent="1" vertex="1">
          <mxGeometry x="1355" y="300" width="101" height="50" as="geometry" />
        </mxCell>
        <mxCell id="BXiqwRlGKzKQuI-ZINDh-104" value="Project Management&amp;nbsp;&lt;div&gt;(16)&lt;/div&gt;" style="text;html=1;align=center;verticalAlign=middle;whiteSpace=wrap;rounded=0;" parent="1" vertex="1">
          <mxGeometry x="1235" y="515" width="91" height="40" as="geometry" />
        </mxCell>
        <mxCell id="BXiqwRlGKzKQuI-ZINDh-105" value="Executive&lt;div&gt;(1)&lt;/div&gt;" style="text;html=1;align=center;verticalAlign=middle;whiteSpace=wrap;rounded=0;" parent="1" vertex="1">
          <mxGeometry x="1360" y="510" width="91" height="40" as="geometry" />
        </mxCell>
        <mxCell id="g66wI6sif0jjf1UmDSFJ-47" style="edgeStyle=orthogonalEdgeStyle;rounded=0;orthogonalLoop=1;jettySize=auto;html=1;" parent="1" source="BXiqwRlGKzKQuI-ZINDh-106" target="BXiqwRlGKzKQuI-ZINDh-93" edge="1">
          <mxGeometry relative="1" as="geometry">
            <Array as="points">
              <mxPoint x="1296" y="125" />
            </Array>
          </mxGeometry>
        </mxCell>
        <mxCell id="BXiqwRlGKzKQuI-ZINDh-106" value="" style="shape=mxgraph.cisco.switches.workgroup_switch;sketch=0;html=1;pointerEvents=1;dashed=0;fillColor=#036897;strokeColor=#ffffff;strokeWidth=2;verticalLabelPosition=bottom;verticalAlign=top;align=center;outlineConnect=0;" parent="1" vertex="1">
          <mxGeometry x="1230" y="300" width="101" height="50" as="geometry" />
        </mxCell>
        <mxCell id="BXiqwRlGKzKQuI-ZINDh-107" value="" style="endArrow=none;html=1;rounded=0;" parent="1" source="BXiqwRlGKzKQuI-ZINDh-102" target="BXiqwRlGKzKQuI-ZINDh-106" edge="1">
          <mxGeometry width="50" height="50" relative="1" as="geometry">
            <mxPoint x="1330" y="395" as="sourcePoint" />
            <mxPoint x="1330" y="365" as="targetPoint" />
          </mxGeometry>
        </mxCell>
        <mxCell id="BXiqwRlGKzKQuI-ZINDh-108" value="" style="endArrow=none;html=1;rounded=0;" parent="1" source="BXiqwRlGKzKQuI-ZINDh-101" target="BXiqwRlGKzKQuI-ZINDh-103" edge="1">
          <mxGeometry width="50" height="50" relative="1" as="geometry">
            <mxPoint x="1351.5" y="425" as="sourcePoint" />
            <mxPoint x="1401.5" y="375" as="targetPoint" />
          </mxGeometry>
        </mxCell>
        <mxCell id="BXiqwRlGKzKQuI-ZINDh-109" value="1263" style="text;html=1;align=center;verticalAlign=middle;whiteSpace=wrap;rounded=0;" parent="1" vertex="1">
          <mxGeometry x="1285" y="260" width="60" height="30" as="geometry" />
        </mxCell>
        <mxCell id="BXiqwRlGKzKQuI-ZINDh-110" value="71" style="text;html=1;align=center;verticalAlign=middle;whiteSpace=wrap;rounded=0;" parent="1" vertex="1">
          <mxGeometry x="1396" y="255" width="60" height="30" as="geometry" />
        </mxCell>
        <mxCell id="BXiqwRlGKzKQuI-ZINDh-124" style="edgeStyle=orthogonalEdgeStyle;rounded=0;orthogonalLoop=1;jettySize=auto;html=1;exitX=0.5;exitY=0;exitDx=0;exitDy=0;exitPerimeter=0;entryX=0;entryY=1;entryDx=0;entryDy=0;entryPerimeter=0;" parent="1" source="BXiqwRlGKzKQuI-ZINDh-29" target="BXiqwRlGKzKQuI-ZINDh-128" edge="1">
          <mxGeometry relative="1" as="geometry">
            <mxPoint x="210" y="-25" as="targetPoint" />
          </mxGeometry>
        </mxCell>
        <mxCell id="BXiqwRlGKzKQuI-ZINDh-126" value="&lt;font style=&quot;font-size: 14px;&quot;&gt;&lt;b&gt;&lt;font style=&quot;&quot;&gt;1257&lt;/font&gt;9&lt;/b&gt;&lt;/font&gt;" style="text;html=1;align=center;verticalAlign=middle;whiteSpace=wrap;rounded=0;" parent="1" vertex="1">
          <mxGeometry x="340" width="60" height="30" as="geometry" />
        </mxCell>
        <mxCell id="BXiqwRlGKzKQuI-ZINDh-127" value="&lt;font style=&quot;font-size: 14px;&quot;&gt;&lt;b&gt;12621&lt;/b&gt;&lt;/font&gt;" style="text;html=1;align=center;verticalAlign=middle;whiteSpace=wrap;rounded=0;" parent="1" vertex="1">
          <mxGeometry x="108.5" width="60" height="30" as="geometry" />
        </mxCell>
        <mxCell id="D1z5Sd_cmgpTsEMFyd4e-22" style="edgeStyle=orthogonalEdgeStyle;rounded=0;orthogonalLoop=1;jettySize=auto;html=1;" parent="1" source="BXiqwRlGKzKQuI-ZINDh-128" target="D1z5Sd_cmgpTsEMFyd4e-16" edge="1">
          <mxGeometry relative="1" as="geometry" />
        </mxCell>
        <mxCell id="BXiqwRlGKzKQuI-ZINDh-128" value="" style="shape=mxgraph.cisco.switches.layer_3_switch;sketch=0;html=1;pointerEvents=1;dashed=0;fillColor=#036897;strokeColor=#ffffff;strokeWidth=2;verticalLabelPosition=bottom;verticalAlign=top;align=center;outlineConnect=0;" parent="1" vertex="1">
          <mxGeometry x="204.5" y="-54" width="64" height="64" as="geometry" />
        </mxCell>
        <mxCell id="g66wI6sif0jjf1UmDSFJ-1" value="" style="shape=mxgraph.cisco.computers_and_peripherals.pc;sketch=0;html=1;pointerEvents=1;dashed=0;fillColor=#036897;strokeColor=#ffffff;strokeWidth=2;verticalLabelPosition=bottom;verticalAlign=top;align=center;outlineConnect=0;" parent="1" vertex="1">
          <mxGeometry x="-149" y="410" width="78" height="70" as="geometry" />
        </mxCell>
        <mxCell id="g66wI6sif0jjf1UmDSFJ-23" style="edgeStyle=orthogonalEdgeStyle;rounded=0;orthogonalLoop=1;jettySize=auto;html=1;entryX=0.87;entryY=0.74;entryDx=0;entryDy=0;entryPerimeter=0;" parent="1" source="g66wI6sif0jjf1UmDSFJ-2" target="BXiqwRlGKzKQuI-ZINDh-29" edge="1">
          <mxGeometry relative="1" as="geometry">
            <mxPoint x="-109.50000000000045" y="250" as="targetPoint" />
            <Array as="points">
              <mxPoint x="-109" y="170" />
              <mxPoint x="-194" y="170" />
            </Array>
          </mxGeometry>
        </mxCell>
        <mxCell id="g66wI6sif0jjf1UmDSFJ-2" value="" style="shape=mxgraph.cisco.switches.workgroup_switch;sketch=0;html=1;pointerEvents=1;dashed=0;fillColor=#036897;strokeColor=#ffffff;strokeWidth=2;verticalLabelPosition=bottom;verticalAlign=top;align=center;outlineConnect=0;" parent="1" vertex="1">
          <mxGeometry x="-160" y="300" width="101" height="50" as="geometry" />
        </mxCell>
        <mxCell id="g66wI6sif0jjf1UmDSFJ-3" value="Sales&amp;amp;Marketing Floor 2&lt;div&gt;(9)&lt;/div&gt;" style="text;html=1;align=center;verticalAlign=middle;whiteSpace=wrap;rounded=0;" parent="1" vertex="1">
          <mxGeometry x="-160" y="500" width="91" height="40" as="geometry" />
        </mxCell>
        <mxCell id="g66wI6sif0jjf1UmDSFJ-4" value="" style="endArrow=none;html=1;rounded=0;entryX=0.5;entryY=0.98;entryDx=0;entryDy=0;entryPerimeter=0;" parent="1" source="g66wI6sif0jjf1UmDSFJ-1" target="g66wI6sif0jjf1UmDSFJ-2" edge="1">
          <mxGeometry width="50" height="50" relative="1" as="geometry">
            <mxPoint x="-149" y="400" as="sourcePoint" />
            <mxPoint x="-99" y="350" as="targetPoint" />
          </mxGeometry>
        </mxCell>
        <mxCell id="g66wI6sif0jjf1UmDSFJ-6" value="" style="shape=mxgraph.cisco.computers_and_peripherals.pc;sketch=0;html=1;pointerEvents=1;dashed=0;fillColor=#036897;strokeColor=#ffffff;strokeWidth=2;verticalLabelPosition=bottom;verticalAlign=top;align=center;outlineConnect=0;" parent="1" vertex="1">
          <mxGeometry x="371.5" y="445" width="78" height="70" as="geometry" />
        </mxCell>
        <mxCell id="g66wI6sif0jjf1UmDSFJ-39" style="edgeStyle=orthogonalEdgeStyle;rounded=0;orthogonalLoop=1;jettySize=auto;html=1;" parent="1" source="g66wI6sif0jjf1UmDSFJ-7" target="BXiqwRlGKzKQuI-ZINDh-93" edge="1">
          <mxGeometry relative="1" as="geometry">
            <Array as="points">
              <mxPoint x="390" y="125" />
            </Array>
          </mxGeometry>
        </mxCell>
        <mxCell id="g66wI6sif0jjf1UmDSFJ-7" value="" style="shape=mxgraph.cisco.switches.workgroup_switch;sketch=0;html=1;pointerEvents=1;dashed=0;fillColor=#036897;strokeColor=#ffffff;strokeWidth=2;verticalLabelPosition=bottom;verticalAlign=top;align=center;outlineConnect=0;" parent="1" vertex="1">
          <mxGeometry x="360" y="300" width="101" height="50" as="geometry" />
        </mxCell>
        <mxCell id="g66wI6sif0jjf1UmDSFJ-8" value="IT&lt;div&gt;Floor 2&lt;br&gt;&lt;div&gt;(36)&lt;/div&gt;&lt;/div&gt;" style="text;html=1;align=center;verticalAlign=middle;whiteSpace=wrap;rounded=0;" parent="1" vertex="1">
          <mxGeometry x="365" y="525" width="91" height="40" as="geometry" />
        </mxCell>
        <mxCell id="g66wI6sif0jjf1UmDSFJ-9" value="" style="endArrow=none;html=1;rounded=0;exitX=0.5;exitY=0;exitDx=0;exitDy=0;exitPerimeter=0;entryX=0.5;entryY=0.98;entryDx=0;entryDy=0;entryPerimeter=0;" parent="1" source="g66wI6sif0jjf1UmDSFJ-6" target="g66wI6sif0jjf1UmDSFJ-7" edge="1">
          <mxGeometry width="50" height="50" relative="1" as="geometry">
            <mxPoint x="548" y="415" as="sourcePoint" />
            <mxPoint x="598" y="365" as="targetPoint" />
          </mxGeometry>
        </mxCell>
        <mxCell id="g66wI6sif0jjf1UmDSFJ-10" value="" style="shape=mxgraph.cisco.computers_and_peripherals.pc;sketch=0;html=1;pointerEvents=1;dashed=0;fillColor=#036897;strokeColor=#ffffff;strokeWidth=2;verticalLabelPosition=bottom;verticalAlign=top;align=center;outlineConnect=0;" parent="1" vertex="1">
          <mxGeometry x="-677" y="410" width="78" height="70" as="geometry" />
        </mxCell>
        <mxCell id="g66wI6sif0jjf1UmDSFJ-11" value="" style="shape=mxgraph.cisco.switches.workgroup_switch;sketch=0;html=1;pointerEvents=1;dashed=0;fillColor=#036897;strokeColor=#ffffff;strokeWidth=2;verticalLabelPosition=bottom;verticalAlign=top;align=center;outlineConnect=0;" parent="1" vertex="1">
          <mxGeometry x="-688" y="310" width="101" height="50" as="geometry" />
        </mxCell>
        <mxCell id="g66wI6sif0jjf1UmDSFJ-12" value="Business Consultants&lt;div&gt;Floor 3&amp;nbsp;&lt;/div&gt;&lt;div&gt;(27)&lt;/div&gt;" style="text;html=1;align=center;verticalAlign=middle;whiteSpace=wrap;rounded=0;" parent="1" vertex="1">
          <mxGeometry x="-720" y="490" width="121" height="40" as="geometry" />
        </mxCell>
        <mxCell id="g66wI6sif0jjf1UmDSFJ-13" value="" style="endArrow=none;html=1;rounded=0;exitX=0.5;exitY=0;exitDx=0;exitDy=0;exitPerimeter=0;entryX=0.5;entryY=0.98;entryDx=0;entryDy=0;entryPerimeter=0;" parent="1" source="g66wI6sif0jjf1UmDSFJ-10" target="g66wI6sif0jjf1UmDSFJ-11" edge="1">
          <mxGeometry width="50" height="50" relative="1" as="geometry">
            <mxPoint x="-507" y="380" as="sourcePoint" />
            <mxPoint x="-457" y="330" as="targetPoint" />
          </mxGeometry>
        </mxCell>
        <mxCell id="g66wI6sif0jjf1UmDSFJ-14" value="" style="shape=mxgraph.cisco.computers_and_peripherals.pc;sketch=0;html=1;pointerEvents=1;dashed=0;fillColor=#036897;strokeColor=#ffffff;strokeWidth=2;verticalLabelPosition=bottom;verticalAlign=top;align=center;outlineConnect=0;" parent="1" vertex="1">
          <mxGeometry x="1121.5" y="425" width="78" height="70" as="geometry" />
        </mxCell>
        <mxCell id="g66wI6sif0jjf1UmDSFJ-15" value="" style="shape=mxgraph.cisco.switches.workgroup_switch;sketch=0;html=1;pointerEvents=1;dashed=0;fillColor=#036897;strokeColor=#ffffff;strokeWidth=2;verticalLabelPosition=bottom;verticalAlign=top;align=center;outlineConnect=0;" parent="1" vertex="1">
          <mxGeometry x="1110" y="300" width="101" height="50" as="geometry" />
        </mxCell>
        <mxCell id="g66wI6sif0jjf1UmDSFJ-16" value="Research&amp;amp;Analysis&lt;div&gt;Floor 5&lt;/div&gt;&lt;div&gt;(12)&lt;/div&gt;" style="text;html=1;align=center;verticalAlign=middle;whiteSpace=wrap;rounded=0;" parent="1" vertex="1">
          <mxGeometry x="1115" y="515" width="91" height="40" as="geometry" />
        </mxCell>
        <mxCell id="g66wI6sif0jjf1UmDSFJ-17" value="" style="endArrow=none;html=1;rounded=0;" parent="1" source="g66wI6sif0jjf1UmDSFJ-14" target="g66wI6sif0jjf1UmDSFJ-15" edge="1">
          <mxGeometry width="50" height="50" relative="1" as="geometry">
            <mxPoint x="1111.5" y="425" as="sourcePoint" />
            <mxPoint x="1161.5" y="375" as="targetPoint" />
          </mxGeometry>
        </mxCell>
        <mxCell id="g66wI6sif0jjf1UmDSFJ-19" style="edgeStyle=orthogonalEdgeStyle;rounded=0;orthogonalLoop=1;jettySize=auto;html=1;" parent="1" target="BXiqwRlGKzKQuI-ZINDh-29" edge="1">
          <mxGeometry relative="1" as="geometry">
            <mxPoint x="-659.998260869565" y="310" as="sourcePoint" />
            <mxPoint x="-287.8600000000001" y="101.5" as="targetPoint" />
            <Array as="points">
              <mxPoint x="-660" y="115" />
            </Array>
          </mxGeometry>
        </mxCell>
        <mxCell id="g66wI6sif0jjf1UmDSFJ-24" style="edgeStyle=orthogonalEdgeStyle;rounded=0;orthogonalLoop=1;jettySize=auto;html=1;entryX=0.98;entryY=0.5;entryDx=0;entryDy=0;entryPerimeter=0;" parent="1" source="BXiqwRlGKzKQuI-ZINDh-23" target="BXiqwRlGKzKQuI-ZINDh-29" edge="1">
          <mxGeometry relative="1" as="geometry">
            <Array as="points">
              <mxPoint x="30" y="140" />
              <mxPoint x="-183" y="140" />
            </Array>
          </mxGeometry>
        </mxCell>
        <mxCell id="g66wI6sif0jjf1UmDSFJ-26" value="2531" style="text;html=1;align=center;verticalAlign=middle;whiteSpace=wrap;rounded=0;" parent="1" vertex="1">
          <mxGeometry x="-667.5" y="260" width="60" height="30" as="geometry" />
        </mxCell>
        <mxCell id="g66wI6sif0jjf1UmDSFJ-27" value="3187" style="text;html=1;align=center;verticalAlign=middle;whiteSpace=wrap;rounded=0;" parent="1" vertex="1">
          <mxGeometry x="-532" y="260" width="60" height="30" as="geometry" />
        </mxCell>
        <mxCell id="g66wI6sif0jjf1UmDSFJ-28" value="1217" style="text;html=1;align=center;verticalAlign=middle;whiteSpace=wrap;rounded=0;" parent="1" vertex="1">
          <mxGeometry x="-240.5" y="260" width="60" height="30" as="geometry" />
        </mxCell>
        <mxCell id="g66wI6sif0jjf1UmDSFJ-34" value="684" style="text;html=1;align=center;verticalAlign=middle;whiteSpace=wrap;rounded=0;" parent="1" vertex="1">
          <mxGeometry x="-110" y="260" width="60" height="30" as="geometry" />
        </mxCell>
        <mxCell id="g66wI6sif0jjf1UmDSFJ-35" value="2511" style="text;html=1;align=center;verticalAlign=middle;whiteSpace=wrap;rounded=0;" parent="1" vertex="1">
          <mxGeometry x="380.5" y="245" width="60" height="30" as="geometry" />
        </mxCell>
        <mxCell id="g66wI6sif0jjf1UmDSFJ-36" value="697" style="text;html=1;align=center;verticalAlign=middle;whiteSpace=wrap;rounded=0;" parent="1" vertex="1">
          <mxGeometry x="502.5" y="245" width="60" height="30" as="geometry" />
        </mxCell>
        <mxCell id="g66wI6sif0jjf1UmDSFJ-37" value="436" style="text;html=1;align=center;verticalAlign=middle;whiteSpace=wrap;rounded=0;" parent="1" vertex="1">
          <mxGeometry x="1026" y="245" width="60" height="30" as="geometry" />
        </mxCell>
        <mxCell id="g66wI6sif0jjf1UmDSFJ-38" value="1307" style="text;html=1;align=center;verticalAlign=middle;whiteSpace=wrap;rounded=0;" parent="1" vertex="1">
          <mxGeometry x="1139.5" y="260" width="60" height="30" as="geometry" />
        </mxCell>
        <mxCell id="g66wI6sif0jjf1UmDSFJ-46" style="edgeStyle=orthogonalEdgeStyle;rounded=0;orthogonalLoop=1;jettySize=auto;html=1;entryX=0.98;entryY=0.5;entryDx=0;entryDy=0;entryPerimeter=0;" parent="1" source="g66wI6sif0jjf1UmDSFJ-15" edge="1">
          <mxGeometry relative="1" as="geometry">
            <mxPoint x="1134.5" y="315.0000000000002" as="sourcePoint" />
            <mxPoint x="867.4799999999996" y="140.00000000000023" as="targetPoint" />
            <Array as="points">
              <mxPoint x="1135" y="140" />
            </Array>
          </mxGeometry>
        </mxCell>
        <mxCell id="D1z5Sd_cmgpTsEMFyd4e-1" value="" style="shape=mxgraph.cisco.servers.fileserver;sketch=0;html=1;pointerEvents=1;dashed=0;fillColor=#036897;strokeColor=#ffffff;strokeWidth=2;verticalLabelPosition=bottom;verticalAlign=top;align=center;outlineConnect=0;" parent="1" vertex="1">
          <mxGeometry x="-340.5" y="-360" width="43" height="62" as="geometry" />
        </mxCell>
        <mxCell id="D1z5Sd_cmgpTsEMFyd4e-2" value="" style="shape=mxgraph.cisco.servers.fileserver;sketch=0;html=1;pointerEvents=1;dashed=0;fillColor=#036897;strokeColor=#ffffff;strokeWidth=2;verticalLabelPosition=bottom;verticalAlign=top;align=center;outlineConnect=0;" parent="1" vertex="1">
          <mxGeometry x="-257" y="-360" width="43" height="62" as="geometry" />
        </mxCell>
        <mxCell id="D1z5Sd_cmgpTsEMFyd4e-3" value="" style="shape=mxgraph.cisco.servers.fileserver;sketch=0;html=1;pointerEvents=1;dashed=0;fillColor=#036897;strokeColor=#ffffff;strokeWidth=2;verticalLabelPosition=bottom;verticalAlign=top;align=center;outlineConnect=0;" parent="1" vertex="1">
          <mxGeometry x="-170" y="-360" width="43" height="62" as="geometry" />
        </mxCell>
        <mxCell id="D1z5Sd_cmgpTsEMFyd4e-4" value="" style="shape=mxgraph.cisco.servers.fileserver;sketch=0;html=1;pointerEvents=1;dashed=0;fillColor=#036897;strokeColor=#ffffff;strokeWidth=2;verticalLabelPosition=bottom;verticalAlign=top;align=center;outlineConnect=0;" parent="1" vertex="1">
          <mxGeometry x="-80" y="-360" width="43" height="62" as="geometry" />
        </mxCell>
        <mxCell id="D1z5Sd_cmgpTsEMFyd4e-5" value="" style="shape=mxgraph.cisco.servers.fileserver;sketch=0;html=1;pointerEvents=1;dashed=0;fillColor=#036897;strokeColor=#ffffff;strokeWidth=2;verticalLabelPosition=bottom;verticalAlign=top;align=center;outlineConnect=0;" parent="1" vertex="1">
          <mxGeometry x="-421" y="-360" width="43" height="62" as="geometry" />
        </mxCell>
        <mxCell id="D1z5Sd_cmgpTsEMFyd4e-6" value="" style="shape=mxgraph.cisco.servers.fileserver;sketch=0;html=1;pointerEvents=1;dashed=0;fillColor=#036897;strokeColor=#ffffff;strokeWidth=2;verticalLabelPosition=bottom;verticalAlign=top;align=center;outlineConnect=0;" parent="1" vertex="1">
          <mxGeometry x="-383.5" y="-260" width="43" height="62" as="geometry" />
        </mxCell>
        <mxCell id="D1z5Sd_cmgpTsEMFyd4e-7" value="" style="shape=mxgraph.cisco.servers.fileserver;sketch=0;html=1;pointerEvents=1;dashed=0;fillColor=#036897;strokeColor=#ffffff;strokeWidth=2;verticalLabelPosition=bottom;verticalAlign=top;align=center;outlineConnect=0;" parent="1" vertex="1">
          <mxGeometry x="-300" y="-254" width="43" height="62" as="geometry" />
        </mxCell>
        <mxCell id="D1z5Sd_cmgpTsEMFyd4e-8" value="" style="shape=mxgraph.cisco.servers.fileserver;sketch=0;html=1;pointerEvents=1;dashed=0;fillColor=#036897;strokeColor=#ffffff;strokeWidth=2;verticalLabelPosition=bottom;verticalAlign=top;align=center;outlineConnect=0;" parent="1" vertex="1">
          <mxGeometry x="-214" y="-260" width="43" height="62" as="geometry" />
        </mxCell>
        <mxCell id="D1z5Sd_cmgpTsEMFyd4e-9" value="" style="shape=mxgraph.cisco.servers.fileserver;sketch=0;html=1;pointerEvents=1;dashed=0;fillColor=#036897;strokeColor=#ffffff;strokeWidth=2;verticalLabelPosition=bottom;verticalAlign=top;align=center;outlineConnect=0;" parent="1" vertex="1">
          <mxGeometry x="-114" y="-254" width="43" height="62" as="geometry" />
        </mxCell>
        <mxCell id="D1z5Sd_cmgpTsEMFyd4e-11" value="" style="shape=mxgraph.cisco.storage.cloud;sketch=0;html=1;pointerEvents=1;dashed=0;fillColor=#036897;strokeColor=#ffffff;strokeWidth=2;verticalLabelPosition=bottom;verticalAlign=top;align=center;outlineConnect=0;" parent="1" vertex="1">
          <mxGeometry x="747" y="-360" width="186" height="106" as="geometry" />
        </mxCell>
        <mxCell id="D1z5Sd_cmgpTsEMFyd4e-16" value="" style="shape=mxgraph.cisco.routers.router;html=1;pointerEvents=1;dashed=0;fillColor=#036897;strokeColor=#ffffff;strokeWidth=2;verticalLabelPosition=bottom;verticalAlign=top;align=center;outlineConnect=0;" parent="1" vertex="1">
          <mxGeometry x="198" y="-307" width="78" height="53" as="geometry" />
        </mxCell>
        <mxCell id="D1z5Sd_cmgpTsEMFyd4e-17" value="E-Mail&lt;div&gt;471&lt;/div&gt;" style="text;html=1;align=center;verticalAlign=middle;whiteSpace=wrap;rounded=0;" parent="1" vertex="1">
          <mxGeometry x="-429.5" y="-420" width="60" height="30" as="geometry" />
        </mxCell>
        <mxCell id="D1z5Sd_cmgpTsEMFyd4e-18" value="VOIP/IM&lt;div&gt;237&lt;/div&gt;" style="text;html=1;align=center;verticalAlign=middle;whiteSpace=wrap;rounded=0;" parent="1" vertex="1">
          <mxGeometry x="-349" y="-420" width="60" height="30" as="geometry" />
        </mxCell>
        <mxCell id="D1z5Sd_cmgpTsEMFyd4e-19" value="General Internet&lt;div&gt;277&lt;/div&gt;" style="text;html=1;align=center;verticalAlign=middle;whiteSpace=wrap;rounded=0;" parent="1" vertex="1">
          <mxGeometry x="502.5" y="-344" width="92" height="30" as="geometry" />
        </mxCell>
        <mxCell id="D1z5Sd_cmgpTsEMFyd4e-20" style="edgeStyle=orthogonalEdgeStyle;rounded=0;orthogonalLoop=1;jettySize=auto;html=1;entryX=1;entryY=0.5;entryDx=0;entryDy=0;entryPerimeter=0;" parent="1" source="D1z5Sd_cmgpTsEMFyd4e-11" target="D1z5Sd_cmgpTsEMFyd4e-16" edge="1">
          <mxGeometry relative="1" as="geometry" />
        </mxCell>
        <mxCell id="D1z5Sd_cmgpTsEMFyd4e-23" value="Video Conference&lt;div&gt;310&lt;/div&gt;" style="text;html=1;align=center;verticalAlign=middle;whiteSpace=wrap;rounded=0;" parent="1" vertex="1">
          <mxGeometry x="-288.25" y="-420" width="105.5" height="30" as="geometry" />
        </mxCell>
        <mxCell id="D1z5Sd_cmgpTsEMFyd4e-24" value="VM Host 1&lt;div&gt;1593&lt;/div&gt;" style="text;html=1;align=center;verticalAlign=middle;whiteSpace=wrap;rounded=0;" parent="1" vertex="1">
          <mxGeometry x="-200.5" y="-420" width="105.5" height="30" as="geometry" />
        </mxCell>
        <mxCell id="D1z5Sd_cmgpTsEMFyd4e-25" value="VM Host 2&lt;div&gt;1092&lt;/div&gt;" style="text;html=1;align=center;verticalAlign=middle;whiteSpace=wrap;rounded=0;" parent="1" vertex="1">
          <mxGeometry x="-111.25" y="-420" width="105.5" height="30" as="geometry" />
        </mxCell>
        <mxCell id="D1z5Sd_cmgpTsEMFyd4e-26" value="File Server&lt;div&gt;10245&lt;/div&gt;" style="text;html=1;align=center;verticalAlign=middle;whiteSpace=wrap;rounded=0;" parent="1" vertex="1">
          <mxGeometry x="-153.63" y="-160" width="122.25" height="30" as="geometry" />
        </mxCell>
        <mxCell id="D1z5Sd_cmgpTsEMFyd4e-27" value="Application Server 1&lt;div&gt;1639&lt;/div&gt;" style="text;html=1;align=center;verticalAlign=middle;whiteSpace=wrap;rounded=0;" parent="1" vertex="1">
          <mxGeometry x="-462.75" y="-198" width="122.25" height="30" as="geometry" />
        </mxCell>
        <mxCell id="D1z5Sd_cmgpTsEMFyd4e-28" value="Application Server 2&lt;div&gt;1536&lt;/div&gt;" style="text;html=1;align=center;verticalAlign=middle;whiteSpace=wrap;rounded=0;" parent="1" vertex="1">
          <mxGeometry x="-349" y="-170" width="122.25" height="30" as="geometry" />
        </mxCell>
        <mxCell id="D1z5Sd_cmgpTsEMFyd4e-29" value="File Server&lt;div&gt;7800&lt;/div&gt;" style="text;html=1;align=center;verticalAlign=middle;whiteSpace=wrap;rounded=0;" parent="1" vertex="1">
          <mxGeometry x="-257" y="-158.5" width="122.25" height="30" as="geometry" />
        </mxCell>
        <mxCell id="D1z5Sd_cmgpTsEMFyd4e-30" value="" style="endArrow=none;html=1;rounded=0;" parent="1" edge="1">
          <mxGeometry width="50" height="50" relative="1" as="geometry">
            <mxPoint x="-400" y="-280" as="sourcePoint" />
            <mxPoint x="200" y="-280" as="targetPoint" />
          </mxGeometry>
        </mxCell>
        <mxCell id="D1z5Sd_cmgpTsEMFyd4e-33" value="" style="endArrow=none;html=1;rounded=0;entryX=0.5;entryY=1;entryDx=0;entryDy=0;entryPerimeter=0;" parent="1" target="D1z5Sd_cmgpTsEMFyd4e-5" edge="1">
          <mxGeometry width="50" height="50" relative="1" as="geometry">
            <mxPoint x="-399" y="-280" as="sourcePoint" />
            <mxPoint x="-280" y="-300" as="targetPoint" />
          </mxGeometry>
        </mxCell>
        <mxCell id="D1z5Sd_cmgpTsEMFyd4e-35" value="" style="endArrow=none;html=1;rounded=0;exitX=0.5;exitY=0;exitDx=0;exitDy=0;exitPerimeter=0;" parent="1" source="D1z5Sd_cmgpTsEMFyd4e-6" edge="1">
          <mxGeometry width="50" height="50" relative="1" as="geometry">
            <mxPoint x="-389" y="-270" as="sourcePoint" />
            <mxPoint x="-362" y="-280" as="targetPoint" />
          </mxGeometry>
        </mxCell>
        <mxCell id="D1z5Sd_cmgpTsEMFyd4e-36" value="" style="endArrow=none;html=1;rounded=0;entryX=0.5;entryY=1;entryDx=0;entryDy=0;entryPerimeter=0;" parent="1" target="D1z5Sd_cmgpTsEMFyd4e-1" edge="1">
          <mxGeometry width="50" height="50" relative="1" as="geometry">
            <mxPoint x="-319" y="-280" as="sourcePoint" />
            <mxPoint x="-379" y="-278" as="targetPoint" />
          </mxGeometry>
        </mxCell>
        <mxCell id="D1z5Sd_cmgpTsEMFyd4e-37" value="" style="endArrow=none;html=1;rounded=0;" parent="1" target="D1z5Sd_cmgpTsEMFyd4e-7" edge="1">
          <mxGeometry width="50" height="50" relative="1" as="geometry">
            <mxPoint x="-280" y="-280" as="sourcePoint" />
            <mxPoint x="-369" y="-268" as="targetPoint" />
          </mxGeometry>
        </mxCell>
        <mxCell id="D1z5Sd_cmgpTsEMFyd4e-38" value="" style="endArrow=none;html=1;rounded=0;entryX=0.5;entryY=1;entryDx=0;entryDy=0;entryPerimeter=0;" parent="1" target="D1z5Sd_cmgpTsEMFyd4e-2" edge="1">
          <mxGeometry width="50" height="50" relative="1" as="geometry">
            <mxPoint x="-236" y="-280" as="sourcePoint" />
            <mxPoint x="-359" y="-258" as="targetPoint" />
          </mxGeometry>
        </mxCell>
        <mxCell id="D1z5Sd_cmgpTsEMFyd4e-39" value="" style="endArrow=none;html=1;rounded=0;exitX=0.5;exitY=0;exitDx=0;exitDy=0;exitPerimeter=0;" parent="1" source="D1z5Sd_cmgpTsEMFyd4e-8" edge="1">
          <mxGeometry width="50" height="50" relative="1" as="geometry">
            <mxPoint x="-226" y="-270" as="sourcePoint" />
            <mxPoint x="-192" y="-280" as="targetPoint" />
          </mxGeometry>
        </mxCell>
        <mxCell id="D1z5Sd_cmgpTsEMFyd4e-40" value="" style="endArrow=none;html=1;rounded=0;exitX=0.5;exitY=1;exitDx=0;exitDy=0;exitPerimeter=0;" parent="1" source="D1z5Sd_cmgpTsEMFyd4e-3" edge="1">
          <mxGeometry width="50" height="50" relative="1" as="geometry">
            <mxPoint x="-216" y="-260" as="sourcePoint" />
            <mxPoint x="-150" y="-280" as="targetPoint" />
          </mxGeometry>
        </mxCell>
        <mxCell id="D1z5Sd_cmgpTsEMFyd4e-41" value="" style="endArrow=none;html=1;rounded=0;entryX=0.5;entryY=0;entryDx=0;entryDy=0;entryPerimeter=0;" parent="1" target="D1z5Sd_cmgpTsEMFyd4e-9" edge="1">
          <mxGeometry width="50" height="50" relative="1" as="geometry">
            <mxPoint x="-90" y="-280" as="sourcePoint" />
            <mxPoint x="-206" y="-268" as="targetPoint" />
          </mxGeometry>
        </mxCell>
        <mxCell id="D1z5Sd_cmgpTsEMFyd4e-42" value="" style="endArrow=none;html=1;rounded=0;" parent="1" target="D1z5Sd_cmgpTsEMFyd4e-4" edge="1">
          <mxGeometry width="50" height="50" relative="1" as="geometry">
            <mxPoint x="-60" y="-280" as="sourcePoint" />
            <mxPoint x="-196" y="-258" as="targetPoint" />
            <Array as="points" />
          </mxGeometry>
        </mxCell>
        <mxCell id="D4x98raayPRGnfYNlxmL-1" value="Access Switch&lt;div&gt;(A_)&lt;/div&gt;" style="text;html=1;align=center;verticalAlign=middle;whiteSpace=wrap;rounded=0;" parent="1" vertex="1">
          <mxGeometry x="-840" y="275" width="60" height="30" as="geometry" />
        </mxCell>
        <mxCell id="D4x98raayPRGnfYNlxmL-4" value="A1" style="text;html=1;align=center;verticalAlign=middle;whiteSpace=wrap;rounded=0;" parent="1" vertex="1">
          <mxGeometry x="-647" y="285" width="60" height="30" as="geometry" />
        </mxCell>
        <mxCell id="D4x98raayPRGnfYNlxmL-5" value="A2" style="text;html=1;align=center;verticalAlign=middle;whiteSpace=wrap;rounded=0;" parent="1" vertex="1">
          <mxGeometry x="-532" y="280" width="60" height="30" as="geometry" />
        </mxCell>
        <mxCell id="D4x98raayPRGnfYNlxmL-6" value="Distribution Switch&lt;div&gt;D_&lt;/div&gt;" style="text;html=1;align=center;verticalAlign=middle;whiteSpace=wrap;rounded=0;" parent="1" vertex="1">
          <mxGeometry x="-485" y="20" width="105" height="30" as="geometry" />
        </mxCell>
        <mxCell id="D4x98raayPRGnfYNlxmL-7" value="D1" style="text;html=1;align=center;verticalAlign=middle;whiteSpace=wrap;rounded=0;" parent="1" vertex="1">
          <mxGeometry x="-320" y="70" width="60" height="30" as="geometry" />
        </mxCell>
        <mxCell id="D4x98raayPRGnfYNlxmL-8" value="D2" style="text;html=1;align=center;verticalAlign=middle;whiteSpace=wrap;rounded=0;" parent="1" vertex="1">
          <mxGeometry x="756" y="60" width="60" height="30" as="geometry" />
        </mxCell>
        <mxCell id="D4x98raayPRGnfYNlxmL-21" style="edgeStyle=orthogonalEdgeStyle;rounded=0;orthogonalLoop=1;jettySize=auto;html=1;" parent="1" source="D4x98raayPRGnfYNlxmL-10" target="D4x98raayPRGnfYNlxmL-11" edge="1">
          <mxGeometry relative="1" as="geometry">
            <Array as="points">
              <mxPoint x="1190" y="-102" />
            </Array>
          </mxGeometry>
        </mxCell>
        <mxCell id="D4x98raayPRGnfYNlxmL-10" value="" style="shape=mxgraph.cisco.routers.wireless_router;html=1;pointerEvents=1;dashed=0;fillColor=#036897;strokeColor=#ffffff;strokeWidth=2;verticalLabelPosition=bottom;verticalAlign=top;align=center;outlineConnect=0;" parent="1" vertex="1">
          <mxGeometry x="1551" y="-140" width="78" height="77" as="geometry" />
        </mxCell>
        <mxCell id="D4x98raayPRGnfYNlxmL-13" style="edgeStyle=orthogonalEdgeStyle;rounded=0;orthogonalLoop=1;jettySize=auto;html=1;exitX=0;exitY=0.5;exitDx=0;exitDy=0;exitPerimeter=0;" parent="1" source="D4x98raayPRGnfYNlxmL-9" target="BXiqwRlGKzKQuI-ZINDh-93" edge="1">
          <mxGeometry relative="1" as="geometry">
            <Array as="points">
              <mxPoint x="860" y="33" />
            </Array>
          </mxGeometry>
        </mxCell>
        <mxCell id="D4x98raayPRGnfYNlxmL-11" value="" style="shape=mxgraph.cisco.wireless.wlan_controller;sketch=0;html=1;pointerEvents=1;dashed=0;fillColor=#036897;strokeColor=#ffffff;strokeWidth=2;verticalLabelPosition=bottom;verticalAlign=top;align=center;outlineConnect=0;" parent="1" vertex="1">
          <mxGeometry x="1100" y="5" width="101" height="56" as="geometry" />
        </mxCell>
        <mxCell id="D4x98raayPRGnfYNlxmL-26" style="edgeStyle=orthogonalEdgeStyle;rounded=0;orthogonalLoop=1;jettySize=auto;html=1;" parent="1" source="D4x98raayPRGnfYNlxmL-14" target="D4x98raayPRGnfYNlxmL-11" edge="1">
          <mxGeometry relative="1" as="geometry">
            <Array as="points">
              <mxPoint x="1180" y="-183" />
            </Array>
          </mxGeometry>
        </mxCell>
        <mxCell id="D4x98raayPRGnfYNlxmL-14" value="" style="shape=mxgraph.cisco.routers.wireless_router;html=1;pointerEvents=1;dashed=0;fillColor=#036897;strokeColor=#ffffff;strokeWidth=2;verticalLabelPosition=bottom;verticalAlign=top;align=center;outlineConnect=0;" parent="1" vertex="1">
          <mxGeometry x="1551" y="-221.5" width="78" height="77" as="geometry" />
        </mxCell>
        <mxCell id="D4x98raayPRGnfYNlxmL-15" value="" style="shape=mxgraph.cisco.routers.wireless_router;html=1;pointerEvents=1;dashed=0;fillColor=#036897;strokeColor=#ffffff;strokeWidth=2;verticalLabelPosition=bottom;verticalAlign=top;align=center;outlineConnect=0;" parent="1" vertex="1">
          <mxGeometry x="1551" y="-57" width="78" height="77" as="geometry" />
        </mxCell>
        <mxCell id="D4x98raayPRGnfYNlxmL-24" style="edgeStyle=orthogonalEdgeStyle;rounded=0;orthogonalLoop=1;jettySize=auto;html=1;entryX=0.87;entryY=0.78;entryDx=0;entryDy=0;entryPerimeter=0;" parent="1" source="D4x98raayPRGnfYNlxmL-16" target="D4x98raayPRGnfYNlxmL-11" edge="1">
          <mxGeometry relative="1" as="geometry">
            <Array as="points">
              <mxPoint x="1376" y="62" />
              <mxPoint x="1376" y="50" />
              <mxPoint x="1188" y="50" />
            </Array>
          </mxGeometry>
        </mxCell>
        <mxCell id="D4x98raayPRGnfYNlxmL-16" value="" style="shape=mxgraph.cisco.routers.wireless_router;html=1;pointerEvents=1;dashed=0;fillColor=#036897;strokeColor=#ffffff;strokeWidth=2;verticalLabelPosition=bottom;verticalAlign=top;align=center;outlineConnect=0;" parent="1" vertex="1">
          <mxGeometry x="1551" y="23" width="78" height="77" as="geometry" />
        </mxCell>
        <mxCell id="D4x98raayPRGnfYNlxmL-18" value="OPTIONAL:&lt;div&gt;Lightweight Access Point&lt;/div&gt;&lt;div&gt;(1 Per Floor)&lt;/div&gt;" style="text;html=1;align=center;verticalAlign=middle;whiteSpace=wrap;rounded=0;" parent="1" vertex="1">
          <mxGeometry x="1480" y="-337" width="149" height="30" as="geometry" />
        </mxCell>
        <mxCell id="D4x98raayPRGnfYNlxmL-20" style="edgeStyle=orthogonalEdgeStyle;rounded=0;orthogonalLoop=1;jettySize=auto;html=1;entryX=1;entryY=0.5;entryDx=0;entryDy=0;entryPerimeter=0;" parent="1" source="D4x98raayPRGnfYNlxmL-15" target="D4x98raayPRGnfYNlxmL-11" edge="1">
          <mxGeometry relative="1" as="geometry" />
        </mxCell>
        <mxCell id="D4x98raayPRGnfYNlxmL-17" value="WLC1" style="text;html=1;align=center;verticalAlign=middle;whiteSpace=wrap;rounded=0;" parent="1" vertex="1">
          <mxGeometry x="1040" y="-10" width="60" height="30" as="geometry" />
        </mxCell>
        <mxCell id="D4x98raayPRGnfYNlxmL-28" style="edgeStyle=orthogonalEdgeStyle;rounded=0;orthogonalLoop=1;jettySize=auto;html=1;" parent="1" source="D4x98raayPRGnfYNlxmL-27" target="D4x98raayPRGnfYNlxmL-11" edge="1">
          <mxGeometry relative="1" as="geometry" />
        </mxCell>
        <mxCell id="D4x98raayPRGnfYNlxmL-27" value="" style="shape=mxgraph.cisco.routers.wireless_router;html=1;pointerEvents=1;dashed=0;fillColor=#036897;strokeColor=#ffffff;strokeWidth=2;verticalLabelPosition=bottom;verticalAlign=top;align=center;outlineConnect=0;" parent="1" vertex="1">
          <mxGeometry x="1430" y="-275" width="78" height="77" as="geometry" />
        </mxCell>
        <mxCell id="D4x98raayPRGnfYNlxmL-29" value="LAP1" style="text;html=1;align=center;verticalAlign=middle;whiteSpace=wrap;rounded=0;" parent="1" vertex="1">
          <mxGeometry x="1510" y="-254" width="60" height="30" as="geometry" />
        </mxCell>
        <mxCell id="D4x98raayPRGnfYNlxmL-30" value="LAP2" style="text;html=1;align=center;verticalAlign=middle;whiteSpace=wrap;rounded=0;" parent="1" vertex="1">
          <mxGeometry x="1640" y="-192" width="60" height="30" as="geometry" />
        </mxCell>
        <mxCell id="D4x98raayPRGnfYNlxmL-31" value="LAP3" style="text;html=1;align=center;verticalAlign=middle;whiteSpace=wrap;rounded=0;" parent="1" vertex="1">
          <mxGeometry x="1640" y="-116" width="60" height="30" as="geometry" />
        </mxCell>
        <mxCell id="D4x98raayPRGnfYNlxmL-32" value="LAP4" style="text;html=1;align=center;verticalAlign=middle;whiteSpace=wrap;rounded=0;" parent="1" vertex="1">
          <mxGeometry x="1640" y="-25" width="60" height="30" as="geometry" />
        </mxCell>
        <mxCell id="D4x98raayPRGnfYNlxmL-33" value="LAP5" style="text;html=1;align=center;verticalAlign=middle;whiteSpace=wrap;rounded=0;" parent="1" vertex="1">
          <mxGeometry x="1640" y="61" width="60" height="30" as="geometry" />
        </mxCell>
        <mxCell id="D4x98raayPRGnfYNlxmL-34" value="" style="edgeStyle=orthogonalEdgeStyle;rounded=0;orthogonalLoop=1;jettySize=auto;html=1;exitX=0;exitY=0.5;exitDx=0;exitDy=0;exitPerimeter=0;" parent="1" source="D4x98raayPRGnfYNlxmL-11" target="D4x98raayPRGnfYNlxmL-9" edge="1">
          <mxGeometry relative="1" as="geometry">
            <mxPoint x="1100" y="33" as="sourcePoint" />
            <mxPoint x="860" y="100" as="targetPoint" />
            <Array as="points" />
          </mxGeometry>
        </mxCell>
        <mxCell id="D4x98raayPRGnfYNlxmL-9" value="OPTIONAL:&lt;div&gt;&lt;br&gt;&lt;/div&gt;&lt;div&gt;Wireless Lan Controller&lt;/div&gt;" style="text;html=1;align=center;verticalAlign=middle;whiteSpace=wrap;rounded=0;" parent="1" vertex="1">
          <mxGeometry x="888" y="18" width="138" height="30" as="geometry" />
        </mxCell>
        <mxCell id="D4x98raayPRGnfYNlxmL-36" value="&lt;div&gt;&lt;span style=&quot;font-size: 12px;&quot;&gt;Network ID: 172.20.112.0&lt;/span&gt;&lt;/div&gt;&lt;div&gt;&lt;span style=&quot;font-size: 12px;&quot;&gt;First Host: 172.20.112.1&lt;/span&gt;&lt;/div&gt;&lt;div&gt;&lt;span style=&quot;font-size: 12px;&quot;&gt;Last Host: 172.20.127.255&lt;/span&gt;&lt;/div&gt;" style="text;html=1;align=center;verticalAlign=middle;whiteSpace=wrap;rounded=0;" parent="1" vertex="1">
          <mxGeometry x="-655" y="550" width="150" height="60" as="geometry" />
        </mxCell>
        <mxCell id="D4x98raayPRGnfYNlxmL-37" value="&lt;div&gt;&lt;span style=&quot;font-size: 12px;&quot;&gt;Network ID: 172.20.128.0&lt;/span&gt;&lt;/div&gt;&lt;div&gt;&lt;span style=&quot;font-size: 12px;&quot;&gt;First Host: 172.20.128.1&lt;/span&gt;&lt;/div&gt;&lt;div&gt;&lt;span style=&quot;font-size: 12px;&quot;&gt;Last Host: 172.20.143.255&lt;/span&gt;&lt;/div&gt;" style="text;html=1;align=center;verticalAlign=middle;whiteSpace=wrap;rounded=0;" parent="1" vertex="1">
          <mxGeometry x="-421" y="590" width="98" height="50" as="geometry" />
        </mxCell>
        <mxCell id="D4x98raayPRGnfYNlxmL-38" value="&lt;div&gt;&lt;span style=&quot;font-size: 12px;&quot;&gt;Network ID: 172.20.32.0&lt;/span&gt;&lt;/div&gt;&lt;div&gt;&lt;span style=&quot;font-size: 12px;&quot;&gt;First Host: 172.20.32.1&lt;/span&gt;&lt;/div&gt;&lt;div&gt;&lt;span style=&quot;font-size: 12px;&quot;&gt;Last Host: 172.20.47.255&lt;/span&gt;&lt;/div&gt;" style="text;html=1;align=center;verticalAlign=middle;whiteSpace=wrap;rounded=0;" parent="1" vertex="1">
          <mxGeometry x="-250.5" y="566" width="160" height="49" as="geometry" />
        </mxCell>
        <mxCell id="D4x98raayPRGnfYNlxmL-39" value="&lt;div&gt;&lt;span style=&quot;font-size: 12px;&quot;&gt;Network ID: 172.20.96.0&lt;/span&gt;&lt;/div&gt;&lt;div&gt;&lt;span style=&quot;font-size: 12px;&quot;&gt;First Host: 172.20.96.1&lt;/span&gt;&lt;/div&gt;&lt;div&gt;&lt;span style=&quot;font-size: 12px;&quot;&gt;Last Host: 172.20.111.255&lt;/span&gt;&lt;/div&gt;" style="text;html=1;align=center;verticalAlign=middle;whiteSpace=wrap;rounded=0;" parent="1" vertex="1">
          <mxGeometry x="-25" y="566" width="110" height="50" as="geometry" />
        </mxCell>
        <mxCell id="D4x98raayPRGnfYNlxmL-40" value="&lt;div&gt;&lt;span style=&quot;font-size: 12px;&quot;&gt;Network ID: 172.20.80.0&lt;/span&gt;&lt;/div&gt;&lt;div&gt;&lt;span style=&quot;font-size: 12px;&quot;&gt;First Host: 172.20.80.1&lt;/span&gt;&lt;/div&gt;&lt;div&gt;&lt;span style=&quot;font-size: 12px;&quot;&gt;Last Host: 172.20.95.255&lt;/span&gt;&lt;/div&gt;" style="text;html=1;align=center;verticalAlign=middle;whiteSpace=wrap;rounded=0;" parent="1" vertex="1">
          <mxGeometry x="104" y="558.5" width="110" height="65" as="geometry" />
        </mxCell>
        <mxCell id="D4x98raayPRGnfYNlxmL-41" value="&lt;div&gt;&lt;span style=&quot;font-size: 12px;&quot;&gt;Network ID: 172.20.64.0&lt;/span&gt;&lt;/div&gt;&lt;div&gt;&lt;span style=&quot;font-size: 12px;&quot;&gt;First Host: 172.20.64.1&lt;/span&gt;&lt;/div&gt;&lt;div&gt;&lt;span style=&quot;font-size: 12px;&quot;&gt;Last Host: 172.20.79.255&lt;/span&gt;&lt;/div&gt;" style="text;html=1;align=center;verticalAlign=middle;whiteSpace=wrap;rounded=0;" parent="1" vertex="1">
          <mxGeometry x="390" y="566" width="159" height="65" as="geometry" />
        </mxCell>
        <mxCell id="D4x98raayPRGnfYNlxmL-42" value="&lt;div&gt;&lt;span style=&quot;font-size: 12px;&quot;&gt;Network ID: 172.20.48.0&lt;/span&gt;&lt;/div&gt;&lt;div&gt;&lt;span style=&quot;font-size: 12px;&quot;&gt;First Host: 172.20.48.1&lt;/span&gt;&lt;/div&gt;&lt;div&gt;&lt;span style=&quot;font-size: 12px;&quot;&gt;Last Host: 172.20.63.255&lt;/span&gt;&lt;/div&gt;" style="text;html=1;align=center;verticalAlign=middle;whiteSpace=wrap;rounded=0;" parent="1" vertex="1">
          <mxGeometry x="600" y="566" width="115.5" height="94" as="geometry" />
        </mxCell>
        <mxCell id="D4x98raayPRGnfYNlxmL-43" value="&lt;div&gt;&lt;span style=&quot;font-size: 12px;&quot;&gt;Network ID: 172.20.16.0&lt;/span&gt;&lt;/div&gt;&lt;div&gt;&lt;span style=&quot;font-size: 12px;&quot;&gt;First Host: 172.20.16.1&lt;/span&gt;&lt;/div&gt;&lt;div&gt;&lt;span style=&quot;font-size: 12px;&quot;&gt;Last Host: 172.20.31.255&lt;/span&gt;&lt;/div&gt;" style="text;html=1;align=center;verticalAlign=middle;whiteSpace=wrap;rounded=0;" parent="1" vertex="1">
          <mxGeometry x="728" y="590" width="122.5" height="60" as="geometry" />
        </mxCell>
        <mxCell id="D4x98raayPRGnfYNlxmL-44" value="&lt;div&gt;&lt;span style=&quot;font-size: 12px;&quot;&gt;Network ID: 172.20.0.0&lt;/span&gt;&lt;/div&gt;&lt;div&gt;&lt;span style=&quot;font-size: 12px;&quot;&gt;First Host: 172.20.0.1&lt;/span&gt;&lt;/div&gt;&lt;div&gt;&lt;span style=&quot;font-size: 12px;&quot;&gt;Last Host: 172.20.15.255&lt;/span&gt;&lt;/div&gt;" style="text;html=1;align=center;verticalAlign=middle;whiteSpace=wrap;rounded=0;" parent="1" vertex="1">
          <mxGeometry x="863" y="572.5" width="78" height="95" as="geometry" />
        </mxCell>
        <mxCell id="D4x98raayPRGnfYNlxmL-46" value="&lt;div&gt;&lt;span style=&quot;font-size: 12px;&quot;&gt;Network ID: 172.20.144.0&lt;/span&gt;&lt;/div&gt;&lt;div&gt;&lt;span style=&quot;font-size: 12px;&quot;&gt;First Host: 172.20.144.1&lt;/span&gt;&lt;/div&gt;&lt;div&gt;&lt;span style=&quot;font-size: 12px;&quot;&gt;Last Host: 172.20.159.255&lt;/span&gt;&lt;/div&gt;" style="text;html=1;align=center;verticalAlign=middle;whiteSpace=wrap;rounded=0;" parent="1" vertex="1">
          <mxGeometry x="1024.5" y="583.5" width="160" height="47.5" as="geometry" />
        </mxCell>
        <mxCell id="D4x98raayPRGnfYNlxmL-47" value="&lt;div&gt;&lt;span style=&quot;font-size: 12px;&quot;&gt;Network ID: 172.20.160.0&lt;/span&gt;&lt;/div&gt;&lt;div&gt;&lt;span style=&quot;font-size: 12px;&quot;&gt;First Host: 172.20.160.1&lt;/span&gt;&lt;/div&gt;&lt;div&gt;&lt;span style=&quot;font-size: 12px;&quot;&gt;Last Host: 172.20.175.255&lt;/span&gt;&lt;/div&gt;" style="text;html=1;align=center;verticalAlign=middle;whiteSpace=wrap;rounded=0;" parent="1" vertex="1">
          <mxGeometry x="1230" y="572.5" width="99" height="106" as="geometry" />
        </mxCell>
        <mxCell id="D4x98raayPRGnfYNlxmL-48" value="&lt;div&gt;&lt;span style=&quot;font-size: 12px;&quot;&gt;Network ID: 172.20.176.0&lt;/span&gt;&lt;/div&gt;&lt;div&gt;&lt;span style=&quot;font-size: 12px;&quot;&gt;First Host: 172.20.176.1&lt;/span&gt;&lt;/div&gt;&lt;div&gt;&lt;span style=&quot;font-size: 12px;&quot;&gt;Last Host: 172.20.191.255&lt;/span&gt;&lt;/div&gt;" style="text;html=1;align=center;verticalAlign=middle;whiteSpace=wrap;rounded=0;" parent="1" vertex="1">
          <mxGeometry x="1353.5" y="569.5" width="104" height="98" as="geometry" />
        </mxCell>
        <mxCell id="D4x98raayPRGnfYNlxmL-49" value="OPTIONAL:&lt;div&gt;Subnetting&lt;/div&gt;&lt;div&gt;(Subnets in order of floor number)&lt;/div&gt;" style="text;html=1;align=center;verticalAlign=middle;whiteSpace=wrap;rounded=0;" parent="1" vertex="1">
          <mxGeometry x="-840" y="569.5" width="110" height="30" as="geometry" />
        </mxCell>
        <mxCell id="D4x98raayPRGnfYNlxmL-50" value="A3" style="text;html=1;align=center;verticalAlign=middle;whiteSpace=wrap;rounded=0;" parent="1" vertex="1">
          <mxGeometry x="-360" y="280" width="60" height="30" as="geometry" />
        </mxCell>
        <mxCell id="D4x98raayPRGnfYNlxmL-51" value="A4" style="text;html=1;align=center;verticalAlign=middle;whiteSpace=wrap;rounded=0;" parent="1" vertex="1">
          <mxGeometry x="-209" y="275" width="60" height="30" as="geometry" />
        </mxCell>
        <mxCell id="D4x98raayPRGnfYNlxmL-52" value="A5" style="text;html=1;align=center;verticalAlign=middle;whiteSpace=wrap;rounded=0;" parent="1" vertex="1">
          <mxGeometry x="-85" y="275" width="60" height="30" as="geometry" />
        </mxCell>
        <mxCell id="D4x98raayPRGnfYNlxmL-53" value="A6" style="text;html=1;align=center;verticalAlign=middle;whiteSpace=wrap;rounded=0;" parent="1" vertex="1">
          <mxGeometry x="49" y="275" width="60" height="30" as="geometry" />
        </mxCell>
        <mxCell id="D4x98raayPRGnfYNlxmL-54" value="A7" style="text;html=1;align=center;verticalAlign=middle;whiteSpace=wrap;rounded=0;" parent="1" vertex="1">
          <mxGeometry x="198" y="275" width="60" height="30" as="geometry" />
        </mxCell>
        <mxCell id="D4x98raayPRGnfYNlxmL-55" value="A8" style="text;html=1;align=center;verticalAlign=middle;whiteSpace=wrap;rounded=0;" parent="1" vertex="1">
          <mxGeometry x="410" y="270" width="60" height="30" as="geometry" />
        </mxCell>
        <mxCell id="D4x98raayPRGnfYNlxmL-56" value="A9" style="text;html=1;align=center;verticalAlign=middle;whiteSpace=wrap;rounded=0;" parent="1" vertex="1">
          <mxGeometry x="523" y="270" width="60" height="30" as="geometry" />
        </mxCell>
        <mxCell id="D4x98raayPRGnfYNlxmL-57" value="A10" style="text;html=1;align=center;verticalAlign=middle;whiteSpace=wrap;rounded=0;" parent="1" vertex="1">
          <mxGeometry x="675" y="270" width="60" height="30" as="geometry" />
        </mxCell>
        <mxCell id="D4x98raayPRGnfYNlxmL-58" value="A11" style="text;html=1;align=center;verticalAlign=middle;whiteSpace=wrap;rounded=0;" parent="1" vertex="1">
          <mxGeometry x="815" y="280" width="60" height="30" as="geometry" />
        </mxCell>
        <mxCell id="D4x98raayPRGnfYNlxmL-59" value="A12" style="text;html=1;align=center;verticalAlign=middle;whiteSpace=wrap;rounded=0;" parent="1" vertex="1">
          <mxGeometry x="927" y="275" width="60" height="30" as="geometry" />
        </mxCell>
        <mxCell id="D4x98raayPRGnfYNlxmL-60" value="A13" style="text;html=1;align=center;verticalAlign=middle;whiteSpace=wrap;rounded=0;" parent="1" vertex="1">
          <mxGeometry x="1040" y="265" width="60" height="30" as="geometry" />
        </mxCell>
        <mxCell id="D4x98raayPRGnfYNlxmL-61" value="A14" style="text;html=1;align=center;verticalAlign=middle;whiteSpace=wrap;rounded=0;" parent="1" vertex="1">
          <mxGeometry x="1170" y="275" width="60" height="30" as="geometry" />
        </mxCell>
        <mxCell id="D4x98raayPRGnfYNlxmL-62" value="A15" style="text;html=1;align=center;verticalAlign=middle;whiteSpace=wrap;rounded=0;" parent="1" vertex="1">
          <mxGeometry x="1307" y="275" width="60" height="30" as="geometry" />
        </mxCell>
        <mxCell id="D4x98raayPRGnfYNlxmL-63" value="A16" style="text;html=1;align=center;verticalAlign=middle;whiteSpace=wrap;rounded=0;" parent="1" vertex="1">
          <mxGeometry x="1430" y="270" width="60" height="30" as="geometry" />
        </mxCell>
        <mxCell id="D4x98raayPRGnfYNlxmL-64" value="Core Switch&lt;div&gt;(C_)&lt;/div&gt;" style="text;html=1;align=center;verticalAlign=middle;whiteSpace=wrap;rounded=0;" parent="1" vertex="1">
          <mxGeometry x="280" y="-116.5" width="105" height="30" as="geometry" />
        </mxCell>
        <mxCell id="D4x98raayPRGnfYNlxmL-65" value="C1" style="text;html=1;align=center;verticalAlign=middle;whiteSpace=wrap;rounded=0;" parent="1" vertex="1">
          <mxGeometry x="138" y="-83" width="60" height="30" as="geometry" />
        </mxCell>
        <mxCell id="D4x98raayPRGnfYNlxmL-66" value="Enterprise Servers" style="text;html=1;align=center;verticalAlign=middle;whiteSpace=wrap;rounded=0;" parent="1" vertex="1">
          <mxGeometry x="-604" y="-298" width="119" height="30" as="geometry" />
        </mxCell>
        <mxCell id="D4x98raayPRGnfYNlxmL-67" value="Router" style="text;html=1;align=center;verticalAlign=middle;whiteSpace=wrap;rounded=0;" parent="1" vertex="1">
          <mxGeometry x="280" y="-374" width="60" height="30" as="geometry" />
        </mxCell>
        <mxCell id="D4x98raayPRGnfYNlxmL-68" value="Open Internet" style="text;html=1;align=center;verticalAlign=middle;whiteSpace=wrap;rounded=0;" parent="1" vertex="1">
          <mxGeometry x="810" y="-322" width="80" height="30" as="geometry" />
        </mxCell>
      </root>
    </mxGraphModel>
  </diagram>
</mxfile>
